{
    "asset" : {
        "generator" : "Khronos glTF Blender I/O v1.5.17",
        "version" : "2.0"
    },
    "scene" : 0,
    "scenes" : [
        {
            "name" : "Scene",
            "nodes" : [
                2
            ]
        }
    ],
    "nodes" : [
        {
            "mesh" : 0,
            "name" : "Teclas Brancas_Teclas Brancas_0"
        },
        {
            "children" : [
                0
            ],
            "name" : "Teclas Brancas",
            "rotation" : [
                -0.7071068286895752,
                0,
                0,
                0.7071067094802856
            ],
            "scale" : [
                100,
                100,
                100
            ],
            "translation" : [
                -394.4402770996094,
                60.2767333984375,
                -17.4830322265625
            ]
        },
        {
            "children" : [
                1
            ],
            "name" : "RootNode",
            "scale" : [
                0.024733025580644608,
                0.024733025580644608,
                0.024733025580644608
            ]
        }
    ],
    "materials" : [
        {
            "doubleSided" : true,
            "name" : "BakedMaterial",
            "pbrMetallicRoughness" : {
                "baseColorTexture" : {
                    "index" : 0
                },
                "metallicFactor" : 0,
                "roughnessFactor" : 0.5
            }
        }
    ],
    "meshes" : [
        {
            "name" : "Teclas Brancas_Teclas Brancas_0",
            "primitives" : [
                {
                    "attributes" : {
                        "POSITION" : 0,
                        "NORMAL" : 1,
                        "TEXCOORD_0" : 2
                    },
                    "indices" : 3,
                    "material" : 0
                }
            ]
        }
    ],
    "textures" : [
        {
            "sampler" : 0,
            "source" : 0
        }
    ],
    "images" : [
        {
            "mimeType" : "image/jpeg",
            "name" : "BakedTexture",
            "uri" : "BakedTexture.jpeg"
        }
    ],
    "accessors" : [
        {
            "bufferView" : 0,
            "componentType" : 5126,
            "count" : 6593,
            "max" : [
                7.920754432678223,
                2.3593568801879883,
                0.8429697751998901
            ],
            "min" : [
                -0.6616694927215576,
                -2.1028106212615967,
                -0.4341272711753845
            ],
            "type" : "VEC3"
        },
        {
            "bufferView" : 1,
            "componentType" : 5126,
            "count" : 6593,
            "type" : "VEC3"
        },
        {
            "bufferView" : 2,
            "componentType" : 5126,
            "count" : 6593,
            "type" : "VEC2"
        },
        {
            "bufferView" : 3,
            "componentType" : 5123,
            "count" : 13707,
            "type" : "SCALAR"
        }
    ],
    "bufferViews" : [
        {
            "buffer" : 0,
            "byteLength" : 79116,
            "byteOffset" : 0
        },
        {
            "buffer" : 0,
            "byteLength" : 79116,
            "byteOffset" : 79116
        },
        {
            "buffer" : 0,
            "byteLength" : 52744,
            "byteOffset" : 158232
        },
        {
            "buffer" : 0,
            "byteLength" : 27414,
            "byteOffset" : 210976
        }
    ],
    "samplers" : [
        {
            "magFilter" : 9729,
            "minFilter" : 9987
        }
    ],
    "buffers" : [
        {
            "byteLength" : 238392,
            "uri" : "scene.bin"
        }
    ]
}
